<svg xmlns="http://www.w3.org/2000/svg" xmlns:xlink="http://www.w3.org/1999/xlink" version="1.1" style="enable-background:new 0 0 512 512;" xml:space="preserve" width="512" height="512"><rect id="backgroundrect" width="100%" height="100%" x="0" y="0" fill="none" stroke="none"/>
















<g class="currentLayer" style=""><title>Layer 1</title><g id="svg_1" class="selected" fill-opacity="1" fill="#1c99f2">
	<g id="svg_2" fill="#1c99f2">
		<path d="M512,107.275c-23.658-33.787-70.696-42.691-104.489-19.033L233.753,209.907l-63.183-44.246    c23.526-40.618,12.46-93.179-26.71-120.603c-41.364-28.954-98.355-18.906-127.321,22.45    c-28.953,41.358-18.913,98.361,22.452,127.327c28.384,19.874,64.137,21.364,93.129,6.982l77.388,54.185l-77.381,54.179    c-28.992-14.375-64.743-12.885-93.129,6.982c-41.363,28.966-51.404,85.963-22.452,127.32    c28.966,41.363,85.963,51.411,127.32,22.457c39.165-27.424,50.229-79.985,26.71-120.603l63.183-44.246l173.751,121.658    c33.793,23.665,80.831,14.755,104.489-19.033l-212.41-148.715L512,107.275z M91.627,167.539    c-26.173,0-47.392-21.219-47.392-47.392s21.22-47.392,47.392-47.392c26.179,0,47.392,21.219,47.392,47.392    S117.806,167.539,91.627,167.539z M91.627,439.253c-26.173,0-47.392-21.219-47.392-47.392c0-26.173,21.219-47.392,47.392-47.392    c26.179,0,47.392,21.219,47.392,47.392C139.019,418.033,117.806,439.253,91.627,439.253z" id="svg_3" fill="#1c99f2"/>
	</g>
</g><g id="svg_4">
</g><g id="svg_5">
</g><g id="svg_6">
</g><g id="svg_7">
</g><g id="svg_8">
</g><g id="svg_9">
</g><g id="svg_10">
</g><g id="svg_11">
</g><g id="svg_12">
</g><g id="svg_13">
</g><g id="svg_14">
</g><g id="svg_15">
</g><g id="svg_16">
</g><g id="svg_17">
</g><g id="svg_18">
</g></g></svg>